<?xml version="1.0" standalone="no"?>
<!DOCTYPE svg PUBLIC "-//W3C//DTD SVG 20010904//EN"
 "http://www.w3.org/TR/2001/REC-SVG-20010904/DTD/svg10.dtd">
<svg version="1.0" xmlns="http://www.w3.org/2000/svg"
 width="249.000000pt" height="244.000000pt" viewBox="0 0 249.000000 244.000000"
 preserveAspectRatio="xMidYMid meet">

<g transform="translate(0.000000,244.000000) scale(0.100000,-0.100000)"
fill="#000000" stroke="none">
<path d="M932 2421 c-10 -6 -13 -38 -12 -127 1 -65 1 -157 1 -204 l-1 -85
-178 -1 c-268 -3 -513 -41 -638 -100 -63 -30 -83 -51 -91 -98 -5 -34 -2 -40
40 -80 49 -48 135 -86 192 -86 50 0 43 14 -21 40 -30 13 -76 42 -102 66 l-47
44 23 19 c87 74 471 131 782 116 237 -11 483 -43 623 -82 31 -9 57 -19 57 -24
0 -20 -209 -68 -395 -90 -146 -18 -510 -18 -655 0 -63 7 -124 12 -135 9 -17
-4 -15 -7 15 -26 67 -43 173 -61 395 -70 l160 -7 5 -250 c5 -212 3 -252 -9
-263 -13 -10 -13 -12 1 -12 23 0 37 -166 41 -481 l3 -256 -200 1 c-111 0 -228
-4 -260 -8 l-59 -8 6 85 c13 158 79 360 140 425 15 16 18 25 10 33 -7 7 -21 2
-45 -20 -79 -69 -146 -252 -164 -453 l-7 -76 -46 -7 c-133 -19 -288 -73 -325
-114 -9 -10 -20 -35 -23 -55 -5 -34 -2 -40 40 -80 49 -48 135 -86 192 -86 50
0 43 14 -21 40 -30 13 -76 42 -102 65 -39 36 -45 45 -34 58 20 23 105 56 200
77 122 27 128 27 142 -14 6 -19 18 -40 26 -46 12 -11 14 -5 14 38 l0 51 46 7
c104 15 441 9 647 -12 l67 -7 0 -48 c0 -41 3 -49 19 -49 22 0 31 19 31 61 0
25 3 29 23 25 12 -3 49 -10 82 -16 88 -17 175 -42 175 -51 0 -20 -209 -68
-395 -90 -146 -18 -510 -18 -655 0 -63 7 -124 12 -135 9 -17 -4 -15 -7 15 -26
83 -52 196 -67 500 -66 209 1 281 5 397 22 201 31 316 69 358 117 19 22 29 23
255 34 129 6 271 18 315 26 44 8 97 16 118 17 46 2 57 21 57 99 0 51 1 52 52
63 56 13 40 81 -27 113 -25 12 -35 24 -40 50 -8 45 -5 49 49 52 28 1 56 25 56
47 0 24 -55 74 -89 80 -29 6 -31 9 -31 50 l0 44 44 0 c44 0 76 18 76 43 0 35
-66 87 -110 87 -17 0 -20 6 -20 50 l0 50 44 0 c44 0 76 18 76 43 0 35 -66 87
-110 87 -17 0 -20 6 -20 45 l0 45 49 0 c49 0 81 17 81 43 0 35 -66 87 -110 87
-17 0 -20 6 -20 40 0 40 0 40 39 40 40 0 71 20 71 44 0 24 -40 65 -74 77 -30
11 -35 18 -38 51 -2 22 -2 41 1 44 2 2 21 4 42 4 39 0 69 20 69 46 0 24 -55
74 -89 80 -30 6 -31 9 -31 55 l0 49 39 0 c40 0 71 20 71 44 0 24 -40 65 -74
77 -29 10 -35 18 -39 48 -6 47 -3 51 43 51 40 0 70 20 70 46 0 24 -55 74 -88
80 -24 5 -31 13 -36 39 -13 68 -16 69 -426 90 -307 16 -937 20 -958 6z m1063
-60 c94 -6 196 -13 228 -16 l57 -7 0 -60 0 -60 -35 6 c-48 9 -48 -18 0 -41
l35 -17 0 -84 0 -84 -35 6 c-28 6 -35 4 -35 -9 0 -8 16 -23 35 -32 l35 -17 0
-88 c0 -79 -8 -105 -25 -78 -8 13 -35 1 -35 -16 0 -7 14 -20 30 -29 30 -15 30
-16 30 -101 l0 -86 -30 7 c-41 9 -41 -19 0 -40 29 -15 30 -17 30 -94 0 -74 -1
-79 -20 -74 -26 7 -27 -20 -1 -38 16 -12 20 -29 23 -99 3 -83 3 -85 -19 -82
-31 4 -30 -21 2 -42 24 -16 25 -22 25 -105 0 -84 -1 -89 -20 -84 -28 7 -26
-17 4 -42 21 -17 25 -30 28 -103 l5 -83 -29 6 c-39 9 -38 -19 2 -40 31 -16 33
-23 45 -139 6 -52 5 -58 -10 -52 -47 18 -65 18 -65 2 0 -11 17 -25 44 -37 44
-19 44 -20 48 -74 3 -63 1 -65 -75 -66 -29 0 -74 -4 -102 -9 -27 -6 -155 -14
-284 -20 -203 -9 -236 -8 -251 5 -25 23 -94 44 -220 69 l-115 23 -2 96 c-3
115 -30 240 -73 330 -50 106 -145 199 -187 182 -12 -4 -7 -13 25 -40 90 -78
153 -234 173 -428 7 -64 9 -120 6 -123 -7 -7 -192 7 -207 16 -13 8 -27 415
-22 633 l4 127 37 19 c95 49 171 176 179 298 6 91 -10 96 -25 9 -16 -95 -54
-169 -118 -232 -83 -81 -85 -79 -85 84 0 75 -3 180 -6 234 l-7 96 69 6 c267
23 483 67 561 116 61 37 50 106 -23 136 -68 28 -254 66 -441 89 l-53 7 0 123
c0 68 -4 126 -9 129 -15 9 -21 -34 -21 -148 0 -107 0 -108 -22 -102 -13 3 -33
6 -45 6 -28 0 -30 14 -39 224 l-6 159 434 -6 c238 -4 510 -11 603 -16z m368
-125 c26 -20 21 -38 -10 -34 -20 2 -29 9 -31 26 -4 25 13 29 41 8z m0 -220
c25 -19 21 -36 -8 -36 -20 0 -25 5 -25 25 0 28 7 30 33 11z m10 -230 c26 -20
21 -38 -10 -34 -20 2 -29 9 -31 26 -4 25 13 29 41 8z m0 -220 c25 -19 21 -36
-8 -36 -20 0 -25 5 -25 25 0 28 7 30 33 11z m10 -206 c39 -19 36 -42 -5 -38
-28 3 -34 7 -36 32 -2 15 0 26 5 24 4 -2 20 -10 36 -18z m0 -220 c39 -19 36
-42 -5 -38 -28 3 -34 7 -36 32 -2 15 0 26 5 24 4 -2 20 -10 36 -18z m10 -230
c39 -19 36 -42 -5 -38 -28 3 -34 7 -36 32 -2 15 0 26 5 24 4 -2 20 -10 36 -18z
m10 -224 c25 -19 21 -36 -8 -36 -14 0 -25 4 -25 9 0 5 -3 16 -6 25 -8 20 14
21 39 2z m1 -222 c9 -3 16 -13 16 -21 0 -20 -34 -12 -38 10 -4 19 -1 20 22 11z"/>
<path d="M1210 2290 c-63 -3 -108 -8 -100 -12 8 -3 197 -9 420 -12 223 -3 430
-8 460 -11 44 -4 50 -3 31 5 -28 12 -496 41 -616 38 -44 -1 -132 -4 -195 -8z"/>
<path d="M2097 1890 c3 -190 9 -352 14 -360 19 -37 22 40 11 334 -17 439 -32
454 -25 26z"/>
<path d="M1177 2169 c8 -8 128 -15 420 -24 224 -7 410 -11 412 -9 13 12 -36
15 -345 24 -186 5 -375 12 -419 16 -62 4 -77 3 -68 -7z"/>
<path d="M1305 2032 c9 -9 432 -32 579 -32 107 0 54 8 -129 19 -334 20 -461
23 -450 13z"/>
<path d="M1780 1484 c-113 -11 -175 -12 -281 -4 -239 18 -288 11 -113 -16 116
-18 329 -20 429 -5 39 6 124 11 190 11 79 0 116 3 109 10 -17 17 -183 19 -334
4z"/>
<path d="M350 1544 c0 -38 38 -151 75 -223 35 -70 121 -161 181 -190 57 -29
128 -39 149 -21 17 14 11 30 -13 30 -31 1 -130 47 -172 80 -54 43 -114 133
-162 244 -46 106 -58 123 -58 80z"/>
</g>
</svg>
