<svg width="30.000000" height="30.000000" viewBox="0 0 30 30" fill="none" xmlns="http://www.w3.org/2000/svg" xmlns:xlink="http://www.w3.org/1999/xlink">
	<desc>
			Created with Pixso.
	</desc>
	<defs>
		<clipPath id="clip36_253">
			<rect id="logo" rx="15.000000" width="30.000000" height="30.000000" fill="white" fill-opacity="0"/>
		</clipPath>
		<linearGradient x1="21.206900" y1="1.551724" x2="7.434214" y2="26.120686" id="paint_linear_36_253_0" gradientUnits="userSpaceOnUse">
			<stop stop-color="#9FADFC"/>
			<stop offset="0.617168" stop-color="#97A5FA"/>
			<stop offset="0.986817" stop-color="#6C6EE7"/>
		</linearGradient>
	</defs>
	<rect id="logo" rx="15.000000" width="30.000000" height="30.000000" fill="#97A5FA" fill-opacity="1.000000"/>
	<rect id="logo" rx="15.000000" width="30.000000" height="30.000000" fill="url(#paint_linear_36_253_0)" fill-opacity="1.000000"/>
	<g clip-path="url(#clip36_253)">
		<path id="Vector" d="M35.08 25.48L5.96 24.91C5.51 24.89 5.08 24.75 4.69 24.48C4.28 24.22 3.97 23.87 3.75 23.42C3.53 22.99 3.45 22.53 3.48 22.04C3.52 21.57 3.66 21.14 3.92 20.77L21.2 -2.66L23.74 2.49L10.81 19.94L32.55 20.35L35.08 25.48Z" fill="#3328BA" fill-opacity="0.500000" fill-rule="nonzero"/>
		<path id="Vector" d="M33.42 24.49L4.3 23.91C3.85 23.9 3.43 23.76 3.03 23.49C2.63 23.23 2.31 22.88 2.09 22.43C1.88 22 1.79 21.53 1.83 21.05C1.86 20.58 2.01 20.15 2.26 19.77L19.55 -3.65L22.08 1.49L9.15 18.95L30.89 19.36L33.42 24.49Z" fill="#C7D2FE" fill-opacity="1.000000" fill-rule="nonzero"/>
		<rect id="Rectangle 4307" x="22.240234" y="21.282135" width="2.000000" height="2.000000" fill="#9BA9FB" fill-opacity="1.000000"/>
		<path id="Rectangle 4308" d="M17.76 21.12L19.76 21.12L19.76 23.12L17.76 23.12L17.76 21.12Z" fill="#9BA9FB" fill-opacity="1.000000" fill-rule="nonzero"/>
		<rect id="Rectangle 4309" x="13.000000" y="21.000000" width="2.000000" height="2.000000" fill="#9BA9FB" fill-opacity="1.000000"/>
	</g>
</svg>
